<mxfile host="Electron" agent="Mozilla/5.0 (Macintosh; Intel Mac OS X 10_15_7) AppleWebKit/537.36 (KHTML, like Gecko) draw.io/28.0.4 Chrome/138.0.7204.97 Electron/37.2.1 Safari/537.36" version="28.0.4" pages="1">
  <diagram id="4a3ad37dea784a55" name="Installation Graph Td">
    <mxGraphModel dx="706" dy="604" grid="1" gridSize="10" guides="1" tooltips="1" connect="1" arrows="1" fold="1" page="1" pageScale="1" pageWidth="827" pageHeight="1169" math="0" shadow="0">
      <root>
        <mxCell id="0" />
        <mxCell id="1" parent="0" />
        <UserObject label="" mermaidData="{&quot;data&quot;:&quot;graph TD\n    A[Prerequisites Check] --&gt; B[Management Cluster Setup]\n    B --&gt; C[Install RHACM Hub]\n    C --&gt; D[Deploy ArgoCD Hub]\n    D --&gt; E[Setup RHACS Central]\n    E --&gt; F[Configure Observability Stack]\n    F --&gt; G[Application Cluster Provisioning]\n    G --&gt; H[Deploy RH OVE to App Clusters]\n    H --&gt; I[Configure Multi-Network]\n    I --&gt; J[Setup Backup &amp; DR]\n    J --&gt; K[Validation &amp; Testing]&quot;}" id="f08173bc45174722">
          <mxCell style="shape=image;noLabel=1;verticalAlign=top;imageAspect=1;image=data:image/svg+xml,PHN2ZyB3aWR0aD0iMjAwIiBoZWlnaHQ9IjIwMCIgeG1sbnM9Imh0dHA6Ly93d3cudzMub3JnLzIwMDAvc3ZnIj48cmVjdCB3aWR0aD0iMjAwIiBoZWlnaHQ9IjIwMCIgZmlsbD0iI2Y5ZjlmOSIgc3Ryb2tlPSIjY2NjIi8+PHRleHQgeD0iMTAwIiB5PSIxMDAiIHRleHQtYW5jaG9yPSJtaWRkbGUiIGZvbnQtZmFtaWx5PSJBcmlhbCIgZm9udC1zaXplPSIxNCIgZmlsbD0iIzMzMyI+TWVybWFpZCBEaWFncmFtPC90ZXh0Pjwvc3ZnPg==;" vertex="1" parent="1">
            <mxGeometry x="260" y="130" width="200" height="200" as="geometry" />
          </mxCell>
        </UserObject>
      </root>
    </mxGraphModel>
  </diagram>
</mxfile>